SplineFontDB: 3.2
FontName: Spindle-SemiBold
FullName: Spindle Semi Bold
FamilyName: Spindle
Weight: Semi Bold
Copyright: Copyright (c) 2020, Kartik Mair
UComments: "2020-8-15: Created with FontForge (http://fontforge.org)"
Version: 0.1.0
ItalicAngle: 0
UnderlinePosition: -100
UnderlineWidth: 50
Ascent: 800
Descent: 200
InvalidEm: 0
LayerCount: 2
Layer: 0 0 "Back" 1
Layer: 1 0 "Fore" 0
XUID: [1021 515 -1051637245 8677]
OS2Version: 0
OS2_WeightWidthSlopeOnly: 0
OS2_UseTypoMetrics: 1
CreationTime: 1597484220
ModificationTime: 1597576429
OS2TypoAscent: 0
OS2TypoAOffset: 1
OS2TypoDescent: 0
OS2TypoDOffset: 1
OS2TypoLinegap: 0
OS2WinAscent: 0
OS2WinAOffset: 1
OS2WinDescent: 0
OS2WinDOffset: 1
HheadAscent: 0
HheadAOffset: 1
HheadDescent: 0
HheadDOffset: 1
OS2Vendor: 'PfEd'
MarkAttachClasses: 1
DEI: 91125
Encoding: ISO8859-1
UnicodeInterp: none
NameList: AGL For New Fonts
DisplaySize: -48
AntiAlias: 1
FitToEm: 0
WidthSeparation: 100
WinInfo: 20 20 7
BeginPrivate: 0
EndPrivate
BeginChars: 256 53

StartChar: a
Encoding: 97 97 0
Width: 531
VWidth: 1350
Flags: HW
LayerCount: 2
Fore
SplineSet
483 315 m 2
 483 0 l 1
 363 0 l 1
 396 130 l 1
 371 130 l 1
 365 56 307 -15 237 -15 c 0
 233 -15 230 -15 226 -15 c 0
 183 -15 131 -13 78 49 c 0
 61 69 52 95 48 117 c 0
 46 128 46 139 46 149 c 0
 46 234 105 289 195 289 c 1
 195 289 197 288 199 288 c 0
 224 288 363 291 363 329 c 0
 363 371 350 415 257 415 c 0
 190 415 158 389 158 323 c 1
 36 323 l 1
 36 448 143 514 256 515 c 0
 257 515 258 515 259 515 c 0
 303 515 358 509 403 480 c 0
 454 447 483 390 483 315 c 2
195 203 m 1
 195 203 157 198 152 156 c 0
 152 153 151 149 151 146 c 0
 151 97 196 72 240 72 c 0
 251 72 262 74 272 77 c 0
 309 89 363 124 363 167 c 2
 363 249 l 1
 363 222 195 203 195 203 c 1
EndSplineSet
Validated: 1
EndChar

StartChar: b
Encoding: 98 98 1
Width: 581
VWidth: 1350
Flags: HW
LayerCount: 2
Fore
SplineSet
169 147 m 1
 144 147 l 1
 169 0 l 1
 49 0 l 1
 49 700 l 1
 169 700 l 1
 169 500 l 1
 144 353 l 1
 169 353 l 1
 177 424 207 507 299 515 c 0
 307 516 314 516 322 516 c 0
 469 516 539 389 539 250 c 0
 539 111 469 -16 322 -16 c 0
 314 -16 307 -16 299 -15 c 0
 207 -7 177 76 169 147 c 1
169 250 m 0
 169 161 217 95 299 95 c 0
 381 95 419 161 419 250 c 0
 419 339 381 405 299 405 c 0
 217 405 169 339 169 250 c 0
EndSplineSet
Validated: 1
EndChar

StartChar: c
Encoding: 99 99 2
Width: 561
VWidth: 1350
Flags: HW
LayerCount: 2
Fore
SplineSet
398 172 m 1
 522 172 l 1
 500 64 428 -15 294 -15 c 0
 129 -15 39 104 39 250 c 0
 39 396 133 515 294 515 c 0
 425 515 498 437 521 329 c 1
 398 329 l 1
 383 375 351 405 294 405 c 0
 210 405 159 339 159 250 c 0
 159 161 212 95 294 95 c 0
 350 95 383 125 398 172 c 1
EndSplineSet
Validated: 1
EndChar

StartChar: d
Encoding: 100 100 3
Width: 580
VWidth: 1350
Flags: HW
LayerCount: 2
Fore
SplineSet
409 147 m 1
 401 76 371 -7 279 -15 c 0
 271 -16 264 -16 256 -16 c 0
 109 -16 39 111 39 250 c 0
 39 389 109 516 256 516 c 0
 264 516 271 516 279 515 c 0
 371 507 401 424 409 353 c 1
 434 353 l 1
 409 500 l 1
 409 700 l 1
 529 700 l 1
 529 0 l 1
 409 0 l 1
 434 147 l 1
 409 147 l 1
409 250 m 0
 409 339 361 405 279 405 c 0
 197 405 159 339 159 250 c 0
 159 161 197 95 279 95 c 0
 361 95 409 161 409 250 c 0
EndSplineSet
Validated: 1
EndChar

StartChar: e
Encoding: 101 101 4
Width: 561
VWidth: 1350
Flags: HW
LayerCount: 2
Fore
SplineSet
294 90 m 0
 339 90 384 109 392 149 c 1
 514 149 l 1
 486 56 416 -15 294 -15 c 0
 129 -15 39 107 39 253 c 0
 39 399 133 515 294 515 c 0
 455 515 519 399 519 253 c 0
 519 236 518 219 516 203 c 1
 165 203 l 1
 165 133 228 90 294 90 c 0
165 303 m 1
 405 303 l 1
 395 366 362 405 294 405 c 0
 226 405 181 366 165 303 c 1
EndSplineSet
Validated: 1
EndChar

StartChar: f
Encoding: 102 102 5
Width: 463
VWidth: 1350
Flags: HW
LayerCount: 2
Fore
SplineSet
223 700 m 2
 397 700 l 1
 397 600 l 1
 283 600 l 1
 283 500 l 1
 421 500 l 1
 421 400 l 1
 283 400 l 1
 283 0 l 1
 163 0 l 1
 163 400 l 1
 37 400 l 1
 37 500 l 1
 163 500 l 1
 163 639 l 2
 163 672 190 700 223 700 c 2
EndSplineSet
Validated: 1
EndChar

StartChar: g
Encoding: 103 103 6
Width: 579
VWidth: 1350
Flags: HW
LayerCount: 2
Fore
SplineSet
279 1 m 0
 270 0 261 0 253 0 c 0
 107 0 39 112 39 250 c 0
 39 389 109 516 256 516 c 0
 264 516 271 516 279 515 c 0
 371 507 401 424 409 353 c 1
 434 353 l 1
 409 500 l 1
 529 500 l 1
 529 -15 l 2
 529 -85 470 -215 286 -215 c 0
 102 -215 44 -85 44 -15 c 1
 159 -15 l 1
 159 -48 178 -113 286 -113 c 0
 394 -113 409 -55 409 -15 c 2
 409 0 l 1
 434 147 l 1
 409 147 l 1
 401 76 371 9 279 1 c 0
279 405 m 0
 197 405 159 339 159 250 c 0
 159 161 197 111 279 111 c 0
 361 111 409 161 409 250 c 0
 409 339 361 405 279 405 c 0
EndSplineSet
Validated: 1
EndChar

StartChar: h
Encoding: 104 104 7
Width: 546
VWidth: 1350
Flags: HW
LayerCount: 2
Fore
SplineSet
499 250 m 2
 499 0 l 1
 379 0 l 1
 379 250 l 2
 379 339 368 405 286 405 c 0
 204 405 169 339 169 250 c 2
 169 0 l 1
 49 0 l 1
 49 700 l 1
 169 700 l 1
 169 500 l 1
 134 353 l 1
 159 353 l 1
 167 424 194 507 286 515 c 0
 296 516 307 516 316 516 c 0
 478 516 499 388 499 250 c 2
EndSplineSet
Validated: 1
EndChar

StartChar: i
Encoding: 105 105 8
Width: 230
VWidth: 1350
Flags: HW
LayerCount: 2
Fore
SplineSet
54 0 m 1
 54 500 l 1
 174 500 l 1
 174 0 l 1
 54 0 l 1
37 647 m 0
 37 690 71 725 114 725 c 0
 157 725 192 690 192 647 c 0
 192 604 157 570 114 570 c 0
 71 570 37 604 37 647 c 0
EndSplineSet
Validated: 1
EndChar

StartChar: j
Encoding: 106 106 9
Width: 318
VWidth: 1350
Flags: HW
LayerCount: 2
Fore
SplineSet
262 -139 m 2
 262 -172 235 -200 202 -200 c 2
 28 -200 l 1
 28 -100 l 1
 142 -100 l 1
 142 500 l 1
 262 500 l 1
 262 -139 l 2
125 647 m 0
 125 690 159 725 202 725 c 0
 245 725 280 690 280 647 c 0
 280 604 245 570 202 570 c 0
 159 570 125 604 125 647 c 0
EndSplineSet
Validated: 1
EndChar

StartChar: k
Encoding: 107 107 10
Width: 591
VWidth: 1350
Flags: HW
LayerCount: 2
Fore
SplineSet
49 700 m 1
 169 700 l 1
 169 295 l 1
 144 250 l 1
 164 250 l 1
 381 500 l 1
 528 500 l 1
 342 295 l 1
 563 0 l 1
 425 0 l 1
 266 211 l 1
 169 104 l 1
 169 0 l 1
 49 0 l 1
 49 700 l 1
EndSplineSet
Validated: 1
EndChar

StartChar: l
Encoding: 108 108 11
Width: 220
VWidth: 1350
Flags: HW
LayerCount: 2
Fore
SplineSet
49 0 m 1
 49 700 l 1
 169 700 l 1
 169 0 l 1
 49 0 l 1
EndSplineSet
Validated: 1
EndChar

StartChar: m
Encoding: 109 109 12
Width: 832
VWidth: 1350
Flags: HW
LayerCount: 2
Fore
SplineSet
476 250 m 2
 476 0 l 1
 356 0 l 1
 356 250 l 2
 356 339 355 405 273 405 c 0
 191 405 168 339 168 250 c 2
 168 0 l 1
 48 0 l 1
 48 500 l 1
 168 500 l 1
 133 353 l 1
 158 353 l 1
 166 424 181 507 273 515 c 0
 283 516 293 516 302 516 c 0
 410 516 452 459 467 379 c 1
 472 443 500 508 581 515 c 0
 591 516 601 516 610 516 c 0
 771 516 784 388 784 250 c 2
 784 0 l 1
 664 0 l 1
 664 250 l 2
 664 339 663 405 581 405 c 0
 499 405 476 339 476 250 c 2
EndSplineSet
Validated: 1
EndChar

StartChar: n
Encoding: 110 110 13
Width: 546
VWidth: 1350
Flags: HW
LayerCount: 2
Fore
SplineSet
498 250 m 2
 498 0 l 1
 378 0 l 1
 378 250 l 2
 378 339 367 405 285 405 c 0
 203 405 168 339 168 250 c 2
 168 0 l 1
 48 0 l 1
 48 500 l 1
 168 500 l 1
 133 353 l 1
 158 353 l 1
 166 424 193 507 285 515 c 0
 295 516 306 516 315 516 c 0
 477 516 498 388 498 250 c 2
EndSplineSet
Validated: 1
EndChar

StartChar: o
Encoding: 111 111 14
Width: 591
VWidth: 1350
Flags: HW
LayerCount: 2
Fore
SplineSet
294 95 m 0
 376 95 429 161 429 250 c 0
 429 339 378 405 294 405 c 0
 210 405 159 339 159 250 c 0
 159 161 212 95 294 95 c 0
294 -15 m 0
 129 -15 39 104 39 250 c 0
 39 396 133 515 294 515 c 0
 455 515 549 396 549 250 c 0
 549 104 459 -15 294 -15 c 0
EndSplineSet
Validated: 1
EndChar

StartChar: p
Encoding: 112 112 15
Width: 581
VWidth: 1350
Flags: HW
LayerCount: 2
Fore
SplineSet
168 147 m 1
 143 147 l 1
 168 0 l 1
 168 -200 l 1
 48 -200 l 1
 48 500 l 1
 168 500 l 1
 143 353 l 1
 168 353 l 1
 176 424 206 507 298 515 c 0
 306 516 313 516 321 516 c 0
 468 516 538 389 538 250 c 0
 538 111 468 -16 321 -16 c 0
 313 -16 306 -16 298 -15 c 0
 206 -7 176 76 168 147 c 1
168 250 m 0
 168 161 216 95 298 95 c 0
 380 95 418 161 418 250 c 0
 418 339 380 405 298 405 c 0
 216 405 168 339 168 250 c 0
EndSplineSet
Validated: 1
EndChar

StartChar: q
Encoding: 113 113 16
Width: 579
VWidth: 1350
Flags: HW
LayerCount: 2
Fore
SplineSet
409 147 m 1
 401 76 371 -7 279 -15 c 0
 271 -16 264 -16 256 -16 c 0
 109 -16 39 111 39 250 c 0
 39 389 109 516 256 516 c 0
 264 516 271 516 279 515 c 0
 371 507 401 424 409 353 c 1
 434 353 l 1
 409 500 l 1
 529 500 l 1
 529 -200 l 1
 409 -200 l 1
 409 0 l 1
 434 147 l 1
 409 147 l 1
409 250 m 0
 409 339 361 405 279 405 c 0
 197 405 159 339 159 250 c 0
 159 161 197 95 279 95 c 0
 361 95 409 161 409 250 c 0
EndSplineSet
Validated: 1
EndChar

StartChar: r
Encoding: 114 114 17
Width: 387
VWidth: 1350
Flags: HW
LayerCount: 2
Fore
SplineSet
285 508 m 0
 290 508 294 509 299 509 c 0
 323 509 344 504 344 504 c 1
 344 394 l 1
 344 394 317 405 285 405 c 0
 203 405 168 339 168 250 c 2
 168 0 l 1
 48 0 l 1
 48 500 l 1
 168 500 l 1
 133 353 l 1
 158 353 l 1
 166 424 193 500 285 508 c 0
EndSplineSet
Validated: 1
EndChar

StartChar: s
Encoding: 115 115 18
Width: 503
VWidth: 1350
Flags: HW
LayerCount: 2
Fore
SplineSet
405 460 m 0
 439 426 453 383 453 347 c 1
 348 347 l 1
 348 365 335 420 252 420 c 0
 169 420 162 375 162 349 c 0
 162 301 219 302 264 297 c 0
 348 287 416 273 446 219 c 0
 457 200 462 177 462 153 c 0
 462 110 445 64 410 35 c 0
 371 2 312 -14 253 -14 c 0
 192 -14 130 4 92 39 c 0
 53 75 35 124 35 173 c 1
 140 173 l 1
 140 150 150 81 249 81 c 0
 250 81 251 81 252 81 c 0
 340 82 361 114 361 147 c 0
 361 152 361 156 360 161 c 0
 354 199 280 207 247 210 c 0
 213 213 56 221 51 347 c 0
 51 350 51 353 51 355 c 0
 51 458 141 515 251 515 c 2
 252 515 l 2
 319 515 370 495 405 460 c 0
EndSplineSet
Validated: 1
EndChar

StartChar: t
Encoding: 116 116 19
Width: 421
VWidth: 1350
Flags: HW
LayerCount: 2
Fore
SplineSet
201 0 m 2
 168 0 140 28 140 61 c 2
 140 400 l 1
 37 400 l 1
 37 500 l 1
 140 500 l 1
 140 630 l 1
 260 630 l 1
 260 500 l 1
 377 500 l 1
 377 400 l 1
 260 400 l 1
 260 100 l 1
 377 100 l 1
 377 0 l 1
 201 0 l 2
EndSplineSet
Validated: 1
EndChar

StartChar: u
Encoding: 117 117 20
Width: 545
VWidth: 1350
Flags: HW
LayerCount: 2
Fore
SplineSet
45 250 m 2
 45 500 l 1
 165 500 l 1
 165 250 l 2
 165 161 176 95 258 95 c 0
 340 95 375 161 375 250 c 2
 375 500 l 1
 495 500 l 1
 495 0 l 1
 375 0 l 1
 410 147 l 1
 385 147 l 1
 377 76 350 -7 258 -15 c 0
 248 -16 237 -16 228 -16 c 0
 66 -16 45 112 45 250 c 2
EndSplineSet
Validated: 1
EndChar

StartChar: v
Encoding: 118 118 21
Width: 592
VWidth: 1350
Flags: HW
LayerCount: 2
Fore
SplineSet
31 500 m 1
 155 500 l 1
 282 103 l 1
 284 61 l 1
 306 61 l 1
 308 103 l 1
 434 500 l 1
 559 500 l 1
 392 0 l 1
 198 0 l 1
 31 500 l 1
EndSplineSet
Validated: 1
EndChar

StartChar: w
Encoding: 119 119 22
Width: 830
VWidth: 1525
Flags: HW
LayerCount: 2
Fore
SplineSet
144 0 m 1
 32 500 l 1
 153 500 l 1
 226 159 l 1
 227 116 l 1
 253 116 l 1
 254 159 l 1
 331 500 l 1
 496 500 l 1
 573 159 l 1
 574 116 l 1
 600 116 l 1
 601 159 l 1
 674 500 l 1
 795 500 l 1
 683 0 l 1
 489 0 l 1
 427 350 l 1
 427 392 l 1
 400 392 l 1
 400 349 l 1
 338 0 l 1
 144 0 l 1
EndSplineSet
Validated: 1
EndChar

StartChar: x
Encoding: 120 120 23
Width: 576
VWidth: 1350
Flags: HW
LayerCount: 2
Fore
SplineSet
216 252 m 1
 32 500 l 1
 173 500 l 1
 273 341 l 1
 274 298 l 1
 300 298 l 1
 301 341 l 1
 401 500 l 1
 543 500 l 1
 359 252 l 1
 543 5 l 1
 401 5 l 1
 301 164 l 1
 300 206 l 1
 274 206 l 1
 273 164 l 1
 173 5 l 1
 32 5 l 1
 216 252 l 1
EndSplineSet
Validated: 1
EndChar

StartChar: y
Encoding: 121 121 24
Width: 591
VWidth: 1350
Flags: HW
LayerCount: 2
Fore
SplineSet
198 0 m 1
 31 500 l 1
 155 500 l 1
 282 103 l 1
 284 61 l 1
 306 61 l 1
 308 103 l 1
 434 500 l 1
 559 500 l 1
 392 0 l 2
 344 -144 285 -216 106 -216 c 1
 106 -126 l 1
 223 -126 260 -52 277 0 c 1
 198 0 l 1
EndSplineSet
Validated: 1
EndChar

StartChar: z
Encoding: 122 122 25
Width: 529
VWidth: 1350
Flags: HW
LayerCount: 2
Fore
SplineSet
45 500 m 1
 481 500 l 1
 481 318 l 1
 165 125 l 1
 165 100 l 1
 481 100 l 1
 481 0 l 1
 45 0 l 1
 45 182 l 1
 361 375 l 1
 361 400 l 1
 45 400 l 1
 45 500 l 1
EndSplineSet
Validated: 1
EndChar

StartChar: A
Encoding: 65 65 27
Width: 702
VWidth: 1350
Flags: HW
LayerCount: 2
Fore
SplineSet
260 700 m 1
 442 700 l 1
 671 0 l 1
 542 0 l 1
 494 145 l 1
 208 145 l 1
 160 0 l 1
 31 0 l 1
 260 700 l 1
458 255 m 1
 366 565 l 1
 364 605 l 1
 338 605 l 1
 336 565 l 1
 244 255 l 1
 458 255 l 1
EndSplineSet
Validated: 1
EndChar

StartChar: B
Encoding: 66 66 28
Width: 599
VWidth: 1350
Flags: HW
LayerCount: 2
Fore
SplineSet
425 339 m 2
 503 339 559 272 559 189 c 0
 559 47 449 0 342 0 c 2
 49 0 l 1
 49 700 l 1
 320 700 l 2
 431 700 531 673 543 509 c 0
 543 505 543 502 543 498 c 0
 543 429 496 368 427 368 c 0
 426 368 426 368 425 368 c 2
 392 367 l 1
 392 340 l 1
 425 339 l 2
174 600 m 1
 174 400 l 1
 320 400 l 2
 381 400 418 448 418 509 c 0
 418 570 381 600 320 600 c 2
 174 600 l 1
342 300 m 2
 174 300 l 1
 174 90 l 1
 342 90 l 2
 400 90 434 131 434 189 c 0
 434 247 400 300 342 300 c 2
EndSplineSet
Validated: 1
EndChar

StartChar: C
Encoding: 67 67 29
Width: 734
VWidth: 1350
Flags: HW
LayerCount: 2
Fore
SplineSet
567 244 m 1
 695 244 l 1
 660 94 549 -15 378 -15 c 0
 169 -15 39 148 39 350 c 0
 39 552 158 715 378 715 c 0
 558 715 663 606 696 456 c 1
 568 456 l 1
 542 544 478 600 378 600 c 0
 242 600 164 498 164 350 c 0
 164 202 248 100 378 100 c 0
 474 100 539 156 567 244 c 1
EndSplineSet
Validated: 1
EndChar

StartChar: D
Encoding: 68 68 30
Width: 703
VWidth: 1350
Flags: HW
LayerCount: 2
Fore
SplineSet
49 700 m 1
 317 700 l 2
 537 700 661 552 661 350 c 0
 661 148 526 0 317 0 c 2
 49 0 l 1
 49 700 l 1
174 585 m 1
 174 115 l 1
 317 115 l 2
 447 115 534 202 534 350 c 0
 534 498 453 585 317 585 c 2
 174 585 l 1
EndSplineSet
Validated: 1
EndChar

StartChar: E
Encoding: 69 69 31
Width: 556
VWidth: 1350
Flags: HW
LayerCount: 2
Fore
SplineSet
49 700 m 1
 514 700 l 1
 514 590 l 1
 174 590 l 1
 174 400 l 1
 476 400 l 1
 476 300 l 1
 174 300 l 1
 174 110 l 1
 514 110 l 1
 514 0 l 1
 49 0 l 1
 49 700 l 1
EndSplineSet
Validated: 1
EndChar

StartChar: F
Encoding: 70 70 32
Width: 527
VWidth: 1350
Flags: HW
LayerCount: 2
Fore
SplineSet
49 700 m 1
 489 700 l 1
 489 590 l 1
 174 590 l 1
 174 385 l 1
 444 385 l 1
 444 285 l 1
 174 285 l 1
 174 0 l 1
 49 0 l 1
 49 700 l 1
EndSplineSet
Validated: 1
EndChar

StartChar: G
Encoding: 71 71 33
Width: 736
VWidth: 1350
Flags: HW
LayerCount: 2
Fore
SplineSet
413 373 m 1
 688 373 l 1
 688 0 l 1
 578 0 l 1
 603 191 l 1
 578 191 l 1
 578 191 552 0 378 0 c 0
 169 0 39 163 39 365 c 0
 39 567 158 730 378 730 c 0
 558 730 659 621 688 471 c 1
 561 471 l 1
 539 559 478 615 378 615 c 0
 242 615 164 513 164 365 c 0
 164 217 248 115 378 115 c 0
 477 115 536 179 558 273 c 1
 413 273 l 1
 413 373 l 1
EndSplineSet
Validated: 1
EndChar

StartChar: H
Encoding: 72 72 34
Width: 670
VWidth: 1350
Flags: HW
LayerCount: 2
Fore
SplineSet
49 700 m 1
 174 700 l 1
 174 385 l 1
 494 385 l 1
 494 700 l 1
 619 700 l 1
 619 0 l 1
 494 0 l 1
 494 275 l 1
 174 275 l 1
 174 0 l 1
 49 0 l 1
 49 700 l 1
EndSplineSet
Validated: 1
EndChar

StartChar: I
Encoding: 73 73 35
Width: 225
VWidth: 1350
Flags: HW
LayerCount: 2
Fore
SplineSet
49 0 m 1
 49 700 l 1
 174 700 l 1
 174 0 l 1
 49 0 l 1
EndSplineSet
Validated: 1
EndChar

StartChar: J
Encoding: 74 74 36
Width: 570
VWidth: 1350
Flags: HW
LayerCount: 2
Fore
SplineSet
520 700 m 1
 520 209 l 2
 520 125 461 -15 277 -15 c 0
 93 -15 35 131 35 209 c 1
 150 209 l 1
 150 169 169 87 277 87 c 0
 385 87 395 169 395 209 c 2
 395 700 l 1
 520 700 l 1
EndSplineSet
Validated: 1
EndChar

StartChar: K
Encoding: 75 75 37
Width: 756
VWidth: 1350
Flags: HW
LayerCount: 2
Fore
SplineSet
428 424 m 1
 694 0 l 1
 562 0 l 1
 348 332 l 1
 174 133 l 1
 174 0 l 1
 49 0 l 1
 49 700 l 1
 174 700 l 1
 174 313 l 1
 149 269 l 1
 169 269 l 1
 518 700 l 1
 669 700 l 1
 428 424 l 1
728 768 m 1
 727 767 l 1
 727 769 l 1
 728 768 l 1
EndSplineSet
Validated: 1
EndChar

StartChar: L
Encoding: 76 76 38
Width: 539
VWidth: 1350
Flags: HW
LayerCount: 2
Fore
SplineSet
174 700 m 1
 174 110 l 1
 499 110 l 1
 499 0 l 1
 49 0 l 1
 49 700 l 1
 174 700 l 1
EndSplineSet
Validated: 1
EndChar

StartChar: M
Encoding: 77 77 39
Width: 842
VWidth: 1350
Flags: HW
LayerCount: 2
Fore
SplineSet
49 0 m 1
 49 700 l 1
 255 700 l 1
 405 155 l 1
 407 103 l 1
 433 103 l 1
 435 155 l 1
 585 700 l 1
 791 700 l 1
 791 0 l 1
 673 0 l 1
 673 600 l 1
 653 600 l 1
 653 555 l 1
 501 0 l 1
 339 0 l 1
 187 555 l 1
 187 600 l 1
 167 600 l 1
 167 0 l 1
 49 0 l 1
EndSplineSet
Validated: 1
EndChar

StartChar: N
Encoding: 78 78 40
Width: 629
VWidth: 1350
Flags: HW
LayerCount: 2
Fore
SplineSet
49 0 m 1
 49 700 l 1
 255 700 l 1
 440 145 l 1
 440 100 l 1
 460 100 l 1
 460 700 l 1
 578 700 l 1
 578 0 l 1
 372 0 l 1
 187 555 l 1
 187 600 l 1
 167 600 l 1
 167 0 l 1
 49 0 l 1
EndSplineSet
Validated: 1
EndChar

StartChar: O
Encoding: 79 79 41
Width: 769
VWidth: 1350
Flags: HW
LayerCount: 2
Fore
SplineSet
383 100 m 0
 513 100 602 202 602 350 c 0
 602 498 519 600 383 600 c 0
 247 600 164 498 164 350 c 0
 164 202 253 100 383 100 c 0
383 -15 m 0
 174 -15 39 148 39 350 c 0
 39 552 163 715 383 715 c 0
 603 715 727 552 727 350 c 0
 727 148 592 -15 383 -15 c 0
EndSplineSet
Validated: 1
EndChar

StartChar: P
Encoding: 80 80 42
Width: 633
VWidth: 1350
Flags: HW
LayerCount: 2
Fore
SplineSet
49 700 m 1
 352 700 l 2
 463 700 591 647 591 467 c 0
 591 287 463 235 352 235 c 2
 175 235 l 1
 175 0 l 1
 49 0 l 1
 49 700 l 1
175 590 m 1
 175 345 l 1
 352 345 l 2
 413 345 466 387 466 467 c 0
 466 547 413 590 352 590 c 2
 175 590 l 1
EndSplineSet
Validated: 1
EndChar

StartChar: Q
Encoding: 81 81 43
Width: 769
VWidth: 1350
Flags: HW
LayerCount: 2
Fore
SplineSet
453 -9 m 1
 453 -52 l 1
 567 -52 l 1
 567 -152 l 1
 393 -152 l 2
 360 -152 333 -124 333 -91 c 2
 333 -12 l 1
 153 12 39 165 39 350 c 0
 39 552 163 715 383 715 c 0
 603 715 727 552 727 350 c 0
 727 172 622 23 453 -9 c 1
602 350 m 0
 602 498 519 600 383 600 c 0
 247 600 164 498 164 350 c 0
 164 202 253 100 383 100 c 0
 513 100 602 202 602 350 c 0
EndSplineSet
Validated: 1
EndChar

StartChar: R
Encoding: 82 82 44
Width: 589
VWidth: 1350
Flags: HW
LayerCount: 2
Fore
SplineSet
320 700 m 2
 431 700 531 663 543 499 c 0
 543 495 543 492 543 488 c 0
 543 417 496 343 426 343 c 2
 425 343 l 1
 386 343 l 1
 386 314 l 1
 425 314 l 2
 503 314 543 272 543 189 c 2
 543 0 l 1
 418 0 l 1
 418 189 l 2
 418 247 384 280 326 280 c 2
 174 280 l 1
 174 0 l 1
 49 0 l 1
 49 700 l 1
 320 700 l 2
174 380 m 1
 320 380 l 2
 381 380 418 438 418 499 c 0
 418 560 381 600 320 600 c 2
 174 600 l 1
 174 380 l 1
EndSplineSet
Validated: 1
EndChar

StartChar: S
Encoding: 83 83 45
Width: 618
VWidth: 1350
Flags: HW
LayerCount: 2
Fore
SplineSet
501 637 m 4
 543 590 560 532 560 484 c 5
 435 484 l 5
 435 506 434 600 304 600 c 4
 207 600 172 544 172 495 c 4
 172 478 176 462 184 449 c 4
 213 400 273 405 329 399 c 4
 369 395 419 395 459 381 c 4
 484 372 509 360 531 338 c 4
 553 316 568 287 574 253 c 4
 576 238 577 224 577 210 c 4
 577 151 556 97 513 56 c 4
 462 7 388 -15 305 -15 c 4
 304 -15 305 -15 304 -15 c 4
 218 -15 148 11 100 62 c 4
 53 112 35 178 35 243 c 5
 160 243 l 5
 160 242 160 240 160 239 c 0
 160 194 162 100 304 100 c 4
 413 100 456 150 456 199 c 4
 456 215 451 232 442 246 c 4
 419 283 346 282 298 287 c 4
 252 292 192 294 144 321 c 4
 118 335 95 356 78 384 c 4
 61 412 51 445 50 482 c 4
 50 485 50 488 50 491 c 4
 50 542 66 598 107 642 c 4
 152 689 219 715 304 715 c 5
 305 716 l 5
 392 716 458 685 501 637 c 4
EndSplineSet
Validated: 1
EndChar

StartChar: T
Encoding: 84 84 46
Width: 633
VWidth: 1350
Flags: HW
LayerCount: 2
Fore
SplineSet
35 700 m 1
 595 700 l 1
 595 590 l 1
 377 590 l 1
 377 0 l 1
 252 0 l 1
 252 590 l 1
 35 590 l 1
 35 700 l 1
EndSplineSet
Validated: 1
EndChar

StartChar: U
Encoding: 85 85 47
Width: 667
VWidth: 1350
Flags: HW
LayerCount: 2
Fore
SplineSet
172 700 m 1
 172 235 l 2
 172 145 236 100 332 100 c 0
 428 100 492 145 492 235 c 2
 492 700 l 1
 617 700 l 1
 617 235 l 2
 617 83 509 -15 332 -15 c 0
 155 -15 47 83 47 235 c 2
 47 700 l 1
 172 700 l 1
EndSplineSet
Validated: 1
EndChar

StartChar: V
Encoding: 86 86 48
Width: 719
VWidth: 1350
Flags: HW
LayerCount: 2
Fore
SplineSet
268 0 m 1
 29 700 l 1
 158 700 l 1
 344 135 l 1
 346 95 l 1
 372 95 l 1
 374 135 l 1
 560 700 l 1
 689 700 l 1
 450 0 l 1
 268 0 l 1
EndSplineSet
Validated: 1
EndChar

StartChar: W
Encoding: 87 87 49
Width: 1015
VWidth: 1350
Flags: HW
LayerCount: 2
Fore
SplineSet
183 0 m 1
 30 700 l 1
 156 700 l 1
 272 166 l 1
 274 103 l 1
 300 103 l 1
 302 166 l 1
 422 700 l 1
 591 700 l 1
 711 166 l 1
 713 103 l 1
 738 103 l 1
 740 166 l 1
 857 700 l 1
 983 700 l 1
 830 0 l 1
 630 0 l 1
 519 493 l 1
 518 548 l 1
 495 548 l 1
 494 493 l 1
 383 0 l 1
 183 0 l 1
EndSplineSet
Validated: 1
EndChar

StartChar: X
Encoding: 88 88 50
Width: 685
VWidth: 1350
Flags: HW
LayerCount: 2
Fore
SplineSet
268 350 m 1
 31 700 l 1
 180 700 l 1
 327 463 l 1
 328 417 l 1
 355 417 l 1
 356 463 l 1
 502 700 l 1
 652 700 l 1
 415 350 l 1
 652 0 l 1
 502 0 l 1
 356 237 l 1
 355 283 l 1
 328 283 l 1
 327 237 l 1
 180 0 l 1
 31 0 l 1
 268 350 l 1
EndSplineSet
Validated: 1
EndChar

StartChar: Y
Encoding: 89 89 51
Width: 675
VWidth: 1350
Flags: HW
LayerCount: 2
Fore
SplineSet
400 280 m 1
 400 0 l 1
 275 0 l 1
 275 280 l 1
 28 700 l 1
 161 700 l 1
 323 411 l 1
 324 365 l 1
 351 365 l 1
 352 411 l 1
 513 700 l 1
 647 700 l 1
 400 280 l 1
EndSplineSet
Validated: 1
EndChar

StartChar: Z
Encoding: 90 90 52
Width: 605
VWidth: 1350
Flags: HW
LayerCount: 2
Fore
SplineSet
563 700 m 1
 563 525 l 1
 166 125 l 1
 166 110 l 1
 563 110 l 1
 563 0 l 1
 43 0 l 1
 43 175 l 1
 441 575 l 1
 441 590 l 1
 43 590 l 1
 43 700 l 1
 563 700 l 1
EndSplineSet
Validated: 1
EndChar
